<svg width="137.000000" height="72.000000" viewBox="0 0 137 72" fill="none" xmlns="http://www.w3.org/2000/svg" xmlns:xlink="http://www.w3.org/1999/xlink">
	<desc>
			Created with Pixso.
	</desc>
	<defs>
		<clipPath id="clip1_165">
			<rect id="Group 19 2" width="137.000000" height="72.000000" fill="white" fill-opacity="0"/>
		</clipPath>
	</defs>
	<rect id="Group 19 2" width="137.000000" height="72.000000" fill="#FFFFFF" fill-opacity="0"/>
	<g clip-path="url(#clip1_165)">
		<mask id="mask1_168" mask-type="alpha" maskUnits="userSpaceOnUse" x="0.000000" y="0.000000" width="137.000000" height="48.000000">
			<path id="Vector" d="M0 0L137 0L137 48L0 48L0 0Z" fill="#000000" fill-opacity="1.000000" fill-rule="evenodd"/>
		</mask>
		<g mask="url(#mask1_168)">
			<path id="Vector" d="M0.15 27.91C0.39 27.85 24.81 22.03 43.19 13.88C45.24 12.97 46.9 12.43 48.29 12.18C46.73 13.75 37.54 17.68 44.88 18.37C51.61 19.01 40.52 27.01 35.43 29.91C22.05 34.15 13.36 35.82 13.21 35.85L13.39 36.83C13.44 36.82 14.22 36.67 15.62 36.36C23 34.73 47.76 28.62 76.17 14.65C80.15 12.69 83.4 11.6 86.14 11.2C85.34 15.31 76.05 24.41 90.88 26.71C104.41 28.81 77.28 34.13 67.17 36.84C65.71 37.23 64.6 37.57 64.03 37.83C59.56 39.88 111.46 38.04 134.67 37.95C135.43 37.97 136.2 37.99 137 37.99L137 36.99C116.27 36.99 108.92 27.51 103.02 19.89C96.89 11.98 92.05 5.72 75.73 13.75C71.93 15.61 68.1 17.39 64.23 19.09C60.8 17.87 58.73 16.12 56.91 14.58C53.53 11.71 51.09 9.65 42.93 13.27C24.6 21.4 0.24 27.2 0 27.26L0.15 27.91Z" fill="#FDFDFD" fill-opacity="1.000000" fill-rule="nonzero"/>
		</g>
		<path id="Р У С Т У Р" d="M55.16 64.44Q56.35 65.14 58.01 65.14Q59.18 65.14 60.16 64.76Q61.09 64.41 61.76 63.77Q61.8 63.73 61.84 63.7L61.32 62.63Q60.59 63.32 59.79 63.63Q59 63.94 58.04 63.94Q56.59 63.94 55.66 63.24Q55.37 63.03 55.13 62.74Q54.12 61.54 54.12 59.35Q54.12 57.17 55.13 55.97Q55.37 55.69 55.66 55.47Q56.59 54.77 58.04 54.77Q59 54.77 59.79 55.08Q60.59 55.39 61.32 56.08L61.84 55.01Q61.72 54.89 61.59 54.78Q60.98 54.25 60.16 53.94Q59.18 53.57 58.01 53.57Q56.35 53.57 55.16 54.28Q54.74 54.53 54.39 54.85Q53.75 55.44 53.34 56.28Q52.72 57.57 52.72 59.35Q52.72 61.14 53.34 62.44Q53.74 63.25 54.37 63.84Q54.73 64.18 55.16 64.44ZM4.49 53.71L4.49 65L5.8 65L5.8 60.5L8.95 60.5Q10.78 60.5 11.75 59.61Q11.94 59.43 12.1 59.22Q12.72 58.4 12.72 57.11Q12.72 55.77 12.07 54.94Q11.92 54.76 11.75 54.6Q10.78 53.71 8.95 53.71L4.49 53.71ZM32.25 61.62L30.51 65L31.9 65L37.67 53.71L36.32 53.71L32.89 60.39L28.75 53.71L27.32 53.71L32.25 61.62ZM80.78 54.85L80.78 65L82.11 65L82.11 54.85L86.2 54.85L86.2 53.71L76.68 53.71L76.68 54.85L80.78 54.85ZM105.27 61.62L103.53 65L104.92 65L110.7 53.71L109.34 53.71L105.91 60.39L101.77 53.71L100.35 53.71L105.27 61.62ZM126.15 53.71L126.15 65L127.47 65L127.47 60.5L130.62 60.5Q132.44 60.5 133.41 59.61Q133.61 59.43 133.76 59.22Q134.38 58.4 134.38 57.11Q134.38 55.77 133.73 54.94Q133.59 54.76 133.41 54.6Q132.44 53.71 130.62 53.71L126.15 53.71ZM8.79 59.39L5.8 59.39L5.8 54.8L8.79 54.8Q10.28 54.8 10.92 55.54Q11.42 56.11 11.42 57.11Q11.42 58.09 10.93 58.65Q10.29 59.39 8.79 59.39ZM130.46 59.39L127.47 59.39L127.47 54.8L130.46 54.8Q131.94 54.8 132.59 55.54Q133.08 56.11 133.08 57.11Q133.08 58.09 132.6 58.65Q131.95 59.39 130.46 59.39Z" fill="#FFFFFF" fill-opacity="1.000000" fill-rule="evenodd"/>
	</g>
</svg>
